<?xml version="1.0" standalone="no"?>
<!DOCTYPE svg PUBLIC "-//W3C//DTD SVG 20010904//EN"
 "http://www.w3.org/TR/2001/REC-SVG-20010904/DTD/svg10.dtd">
<svg version="1.0" xmlns="http://www.w3.org/2000/svg"
 width="1068.000000pt" height="1068.000000pt" viewBox="0 0 1068.000000 1068.000000"
 preserveAspectRatio="xMidYMid meet">
<metadata>
Created by potrace 1.14, written by Peter Selinger 2001-2017
</metadata>
<g transform="translate(0.000000,1068.000000) scale(0.100000,-0.100000)"
fill="#000000" stroke="none">
<path d="M788 9132 l-766 -767 763 -762 c420 -420 766 -763 769 -763 10 0
1526 1518 1526 1528 0 5 -52 60 -116 123 -144 142 -136 133 -155 155 -10 11
-55 56 -100 102 -46 45 -89 88 -96 95 -6 6 -247 247 -535 534 l-523 523 -767
-768z"/>
<path d="M6091 9890 c-4 -3 -7 -52 -6 -110 1 -58 -3 -111 -8 -117 -5 -7 -6
-13 -1 -13 11 0 11 -430 1 -447 -5 -7 -5 -13 0 -13 10 0 10 -1891 0 -1907 -5
-7 -5 -13 0 -13 10 0 10 -386 0 -396 -4 -4 -686 -8 -1515 -8 l-1507 -1 0
-1511 0 -1511 -35 -2 c-19 -2 -45 -3 -57 -2 -13 0 -54 1 -92 2 -38 0 -74 -2
-80 -6 -6 -3 -11 -1 -11 5 0 7 -6 8 -18 1 -10 -5 -24 -6 -31 -2 -7 5 -27 5
-45 1 -17 -4 -40 -5 -51 -3 -35 6 -153 5 -164 -2 -6 -3 -11 -1 -11 5 0 7 -6 8
-18 1 -10 -5 -24 -6 -31 -2 -7 5 -27 5 -45 1 -17 -4 -40 -5 -51 -3 -35 6 -153
5 -164 -2 -6 -3 -11 -1 -11 5 0 7 -6 8 -18 1 -10 -5 -24 -6 -31 -2 -7 5 -27 5
-45 1 -17 -4 -40 -5 -51 -3 -29 6 -136 5 -142 0 -2 -3 -18 -1 -34 3 -16 5 -31
5 -34 0 -3 -5 -16 -6 -28 -1 -12 4 -33 5 -47 1 -14 -4 -37 -3 -52 1 -15 4 -30
4 -33 0 -2 -5 -17 -6 -32 -4 -16 2 -35 4 -43 4 -78 -2 -165 0 -168 4 -3 2 -13
0 -23 -6 -13 -7 -19 -6 -19 1 0 7 -6 8 -17 2 -17 -8 -34 -8 -78 1 -11 2 -34 1
-51 -3 -18 -4 -38 -4 -45 1 -7 4 -20 4 -29 -1 -9 -5 -22 -5 -29 0 -7 4 -25 5
-39 1 -14 -4 -46 -4 -71 -1 -26 3 -58 3 -71 0 -14 -4 -37 -3 -52 1 -15 4 -30
4 -33 -1 -3 -5 -16 -6 -28 -1 -12 4 -33 5 -47 1 -14 -4 -37 -3 -52 1 -15 4
-30 4 -33 0 -2 -4 -24 -5 -49 -1 -24 4 -52 3 -60 -2 -10 -6 -16 -5 -16 2 0 7
-6 8 -18 1 -10 -5 -24 -6 -31 -2 -7 5 -27 5 -45 1 -17 -4 -40 -5 -51 -3 -35 6
-153 5 -164 -2 -6 -3 -11 -1 -11 5 0 7 -6 8 -18 1 -10 -5 -24 -6 -31 -2 -11 7
-66 1 -81 -9 -3 -2 -15 2 -27 8 -16 9 -24 9 -29 1 -5 -9 -10 -2863 -5 -3029
l1 -25 2267 1 c1248 1 2275 2 2284 3 14 1 16 14 15 87 -1 47 1 87 6 90 4 3 4
15 0 27 -10 27 -9 1563 0 1572 4 4 3 17 -1 29 -9 26 -8 282 1 291 4 4 3 17 -1
29 -4 11 -7 216 -6 455 1 398 2 435 17 440 10 3 690 6 1512 5 l1494 0 4 20 c2
12 3 692 3 1511 0 962 3 1492 9 1497 6 4 18 2 27 -3 11 -5 27 -5 43 1 15 5 26
6 26 0 0 -5 12 -5 30 0 17 5 30 6 30 2 0 -8 53 -8 66 1 6 3 16 2 24 -3 8 -5
21 -5 30 0 9 5 22 5 30 0 8 -5 21 -5 31 1 11 6 20 5 24 -1 4 -6 15 -6 30 0 15
6 25 6 25 0 0 -5 12 -5 30 0 17 5 30 6 30 2 0 -8 53 -8 66 1 6 3 16 2 24 -3 8
-5 21 -5 30 0 9 5 22 5 30 0 8 -5 21 -5 31 1 11 6 20 5 24 -1 4 -6 15 -6 30 0
15 6 25 6 25 0 0 -5 12 -5 30 0 17 5 30 6 30 2 0 -8 53 -8 66 1 6 3 16 2 24
-3 8 -5 21 -5 30 0 9 5 22 5 30 0 8 -5 21 -5 31 1 11 6 20 5 24 -1 4 -6 15 -6
30 0 15 6 25 6 25 0 0 -5 12 -5 30 0 17 5 30 6 30 2 0 -9 58 -8 66 1 4 3 14 2
23 -3 10 -5 23 -5 31 0 8 5 21 5 30 0 9 -5 21 -5 27 -2 13 8 81 7 90 -2 3 -3
13 -1 22 4 10 5 23 5 31 0 8 -5 21 -5 31 1 11 6 20 5 24 -1 3 -6 15 -6 30 0
15 6 27 6 30 0 3 -6 15 -6 30 0 15 6 25 6 25 0 0 -5 12 -5 29 0 15 4 34 4 42
0 7 -5 21 -4 30 1 11 6 20 5 24 -1 3 -6 15 -6 30 0 15 6 27 6 30 0 3 -6 15 -6
30 0 15 6 25 6 25 0 0 -5 12 -5 30 0 17 5 32 5 35 0 3 -5 16 -5 30 0 14 5 25
6 25 2 0 -7 144 -6 165 2 6 2 18 0 25 -4 8 -5 22 -4 31 1 11 6 20 5 24 -1 3
-6 15 -6 30 0 15 6 27 6 30 0 3 -6 15 -6 30 0 15 6 25 6 25 0 0 -5 12 -5 30 0
17 5 32 5 35 0 3 -5 16 -5 30 0 14 5 25 6 25 2 0 -8 156 -6 177 2 7 3 15 1 18
-4 3 -6 15 -6 30 0 15 6 25 6 25 0 0 -5 12 -5 30 0 17 5 30 6 30 2 0 -4 29 -7
65 -7 36 0 65 3 65 7 0 4 11 3 25 -2 16 -6 25 -6 25 0 0 6 9 6 23 2 23 -9 56
-5 58 6 0 4 1 690 2 1525 2 1342 0 1517 -13 1518 -60 4 -4543 3 -4549 -1z"/>
</g>
</svg>
